<svg xmlns="http://www.w3.org/2000/svg" version="1.1" xmlns:xlink="http://www.w3.org/1999/xlink" xmlns:svgjs="http://svgjs.com/svgjs" width="96.02" height="91.65"><svg xmlns="http://www.w3.org/2000/svg" version="1.0" preserveAspectRatio="xMidYMid meet" viewBox="105.2 63.2 96.02 91.65">  <g transform="translate(0.000000,200.000000) scale(0.100000,-0.100000)" fill="#b45f5f" stroke="none"> <path d="M1353 1346 c-69 -26 -79 -32 -139 -89 -23 -22 -46 -39 -50 -38 -5 0 -9 -7 -9 -17 0 -9 -5 -17 -12 -17 -6 0 -15 -4 -20 -9 -5 -5 -2 -6 6 -1 9 5 12 3 9 -6 -3 -8 -10 -13 -16 -12 -7 2 -9 -4 -5 -14 4 -10 2 -14 -5 -10 -15 10 -51 -91 -58 -162 -18 -170 89 -366 245 -450 98 -52 158 -60 451 -65 199 -2 222 -2 90 3 -96 4 -163 8 -148 9 15 1 30 7 33 12 7 12 9 12 -80 0 -104 -13 -194 2 -290 49 -44 22 -98 55 -119 72 -41 35 -126 144 -126 162 0 6 13 -10 29 -35 31 -49 55 -72 44 -41 -4 10 16 -3 43 -28 109 -101 216 -151 344 -162 70 -6 51 2 -51 23 -130 25 -268 125 -323 234 -15 29 -32 83 -38 119 -42 253 212 474 444 387 115 -43 173 -126 166 -236 -2 -37 -11 -72 -23 -90 -10 -16 -20 -24 -21 -19 -1 6 -5 22 -8 37 -4 15 -20 43 -36 61 -28 32 -32 34 -92 32 -35 0 -68 -4 -74 -8 -6 -3 -12 -39 -13 -79 -3 -126 -44 -102 -53 31 -5 71 -15 90 -45 91 -21 0 -15 -17 7 -23 19 -5 20 -14 20 -221 0 -209 -1 -216 -20 -216 -11 0 -20 -4 -20 -9 0 -5 41 -9 90 -9 50 0 90 4 90 8 0 5 -10 10 -22 12 -21 3 -23 9 -26 76 -3 71 -2 72 22 72 20 0 34 -15 75 -82 91 -151 150 -188 295 -188 94 0 130 14 66 24 -51 8 -107 36 -137 68 -12 12 -47 66 -77 118 -49 85 -53 96 -38 105 9 6 38 31 63 56 142 142 83 395 -111 471 -41 16 -82 22 -160 25 -91 3 -113 0 -167 -21z m367 -108 c36 -36 55 -71 64 -118 6 -31 5 -29 -17 16 -25 53 -123 145 -168 159 -15 5 -18 9 -9 15 15 9 90 -32 130 -72z m-354 57 c-11 -8 -23 -15 -28 -15 -16 0 -107 -72 -134 -107 -16 -19 -37 -45 -47 -57 -18 -20 -18 -20 -2 13 27 54 106 132 160 157 56 27 80 31 51 9z m454 -152 c0 -47 -16 -41 -34 14 -23 68 -20 84 9 48 15 -18 25 -43 25 -62z m-198 -170 c23 -20 23 -71 1 -103 -14 -21 -11 -19 20 8 55 47 91 42 46 -7 -26 -28 -49 -36 -121 -45 -39 -5 -58 -4 -58 3 0 6 3 11 8 11 4 0 6 37 4 81 l-4 82 43 -7 c24 -4 51 -14 61 -23z m-116 -192 c-14 -22 -33 -12 -28 15 4 23 6 24 20 11 8 -8 11 -20 8 -26z m201 -99 c18 -29 38 -50 43 -47 6 4 9 3 8 -2 -2 -5 13 -23 32 -40 52 -47 29 -51 -36 -7 -83 57 -157 178 -127 208 4 3 16 -8 27 -26 11 -18 35 -57 53 -86z"></path> <path d="M1478 1073 c18 -2 45 -2 60 0 15 2 0 4 -33 4 -33 0 -45 -2 -27 -4z"></path> <path d="M1233 453 c37 -2 96 -2 130 0 34 2 4 3 -68 3 -71 0 -99 -1 -62 -3z"></path> </g> </svg><style>@media (prefers-color-scheme: light) { :root { filter: contrast(1) brightness(0.1); } }
@media (prefers-color-scheme: dark) { :root { filter: contrast(1) brightness(1.2); } }
</style></svg>